<svg xmlns="http://www.w3.org/2000/svg" class="icon" viewBox="0 0 1024 1024" id="icon-eye-open" width="100%" height="100%">
    <path d="M745.386469 733.354792h-471.355848c-105.126402 0-190.652567-85.552786-190.652567-190.710928 0-105.126402 85.526165-190.652567 190.652567-190.652567 2.067224 0 4.116019 0.032764 6.157646 0.099317 7.175388-120.417105 107.37895-216.182124 229.520278-216.182124 122.188427 0 222.429872 95.763994 229.608332 216.182124 2.024221-0.066553 4.048443-0.099317 6.070616-0.099317 105.134593 0 190.666901 85.526165 190.666901 190.652567 0 32.430544-8.332379 64.497608-24.096117 92.733294-3.751516 6.720783-12.241573 9.128962-18.96338 5.375398-6.720783-3.75254-9.127938-12.242597-5.375398-18.96338 13.450782-24.092022 20.560641-51.460476 20.560641-79.145312 0-89.755835-73.027597-162.777289-162.791624-162.777289-6.024541 0-12.077751 0.347097-17.99376 1.032076a13.936103 13.936103 0 0 1-15.540532-13.844977v-1.12525c0-111.463228-90.681428-202.144656-202.144655-202.144656-111.414082 0-202.056602 90.681428-202.056602 202.144656v1.12525a13.935079 13.935079 0 0 1-15.522102 13.847025c-6.081879-0.696242-12.001984-1.034124-18.099221-1.034124-89.755835 0-162.777289 73.021454-162.777288 162.777289 0 89.787576 73.021454 162.83565 162.777288 162.83565h471.355849c7.69757 0 13.937127 6.240581 13.937127 13.937127s-6.240581 13.938151-13.938151 13.938151z" fill="#75CDF9" p-id="6678"></path>
</svg>
