<svg xmlns="http://www.w3.org/2000/svg" class="icon" viewBox="0 0 1024 1024" id="icon-eye-open" width="100%" height="100%">
    <path d="M446.866286 616.009143c-1.133714 3.986286-29.147429-9.142857-36.571429-11.995429-7.424-3.437714-41.142857-22.272-49.700571-28.013714s-41.142857-32.585143-45.129143-34.304a1034.057143 1034.057143 0 0 1-76.580572 103.424c-10.276571 11.995429-41.142857 50.870857-60.013714 62.866286-2.852571 1.718857-19.419429 3.437714-21.723428 2.304 9.142857-6.838857 35.437714-39.424 46.848-52.553143 14.299429-16.566857 82.285714-111.433143 93.696-133.156572 11.995429-21.723429 47.981714-93.696 49.700571-100.571428-5.705143-0.585143-50.870857 14.848-62.866286 18.870857-11.446857 3.437714-42.861714 10.861714-45.129143 12.580571-2.304 2.304-0.585143 9.142857-1.718857 11.446858s-11.446857 7.424-17.700571 8.557714a60.233143 60.233143 0 0 1-26.843429 0c-7.424-1.718857-14.299429-9.142857-16.018285-11.995429 0 0-2.304-3.437714-2.852572-13.129143 6.838857-2.304 18.285714-2.852571 30.866286-6.290285s43.446857-12.580571 60.013714-18.285715 48.566857-17.700571 58.294857-20.004571c10.276571-1.718857 35.986286-18.870857 49.700572-23.442286s23.442286-10.276571 23.990857-7.424 0 15.433143-0.585143 18.870857c-0.585143 2.852571-28.013714 56.576-32 65.133715-2.304 4.571429-18.285714 34.852571-43.995429 74.861714 9.142857 3.986286 28.562286 11.995429 36.571429 16.018286 9.728 4.571429 77.714286 33.133714 81.152 34.304s9.728 27.428571 8.557714 32zM329.728 338.285714c1.718857 9.728-1.133714 13.714286-2.304 16.018286-5.705143 10.861714-20.004571 18.285714-28.562286 21.723429s-22.857143 6.838857-34.304 6.838857c-5.156571-0.585143-15.433143-2.304-28.013714-14.848-6.838857-7.424-11.995429-27.428571-9.728-25.161143s18.870857 4.571429 26.294857 2.852571 25.161143-6.838857 33.133714-9.142857c8.557714-2.852571 25.709714-7.424 31.414858-8.009143 5.705143 0 10.276571 2.304 11.995428 9.728z m398.848 73.728l35.986286 129.718857-79.433143-23.990857zM95.414857 869.156571l396.580572-132.571428V146.870857L95.414857 280.027429v589.129142zM804.571429 688.018286l58.294857 17.700571-103.424-375.442286-57.161143-17.700571-123.428572 306.285714 58.294858 17.700572 25.709714-62.866286 120.576 37.156571zM517.156571 138.276571l327.424 105.142858V26.258286zM694.857143 894.281143l90.294857 7.424-30.866286 91.428571L731.428571 955.428571c-46.299429 29.696-103.424 52.553143-157.696 61.696-16.566857 3.437714-35.437714 6.838857-52.004571 6.838858h-48.018286c-60.562286 0-170.861714-35.986286-218.843428-70.838858-3.437714-2.852571-4.571429-5.156571-4.571429-9.142857 0-6.290286 4.571429-10.861714 10.276572-10.861714 5.156571 0 32 16.566857 39.424 20.004571 51.419429 25.709714 123.428571 49.152 181.138285 49.152 71.424 0 119.990857-9.142857 185.161143-37.156571 18.870857-8.557714 35.437714-19.419429 53.138286-29.147429z m256-616.557714v616.557714c-441.709714-140.580571-442.294857-140.580571-442.294857-140.580572C499.419429 757.686857 89.709714 896 84.004571 896a10.971429 10.971429 0 0 1-10.276571-7.424c0-0.585143-0.585143-1.133714-0.585143-1.718857V270.848c0.585143-1.718857 1.133714-4.571429 2.304-5.705143 3.437714-3.986286 8.009143-5.156571 11.446857-6.290286 1.718857-0.585143 36.571429-11.995429 85.138286-28.562285v-219.428572l318.866286 113.152C494.884571 122.88 850.322286 0 855.478857 0c6.290286 0 11.446857 4.571429 11.446857 11.995429v238.848z" fill="" p-id="2307"></path>
</svg>